# xmcd CD database file
#
# Track frame offsets:
#	150
#	25212
#	44103
#
# Disc length: 822 seconds
#
# Revision: 1
# Processed by: cddbd v1.5.2PL0 Copyright (c) Steve Scherf et al.
# Submitted via: CDex 1.70beta2
#
DISCID=23033403
DTITLE=高田梢枝 - メダカが見た虹
DYEAR=2007
DGENRE=JPop
TTITLE0=メダカが見た虹
TTITLE1=グッピー
TTITLE2=飛べれば
EXTD=YEAR: 2007
EXTT0=
EXTT1=
EXTT2=
PLAYORDER=
